<?xml version="1.0" standalone="no"?><!-- Generator: Gravit.io --><svg xmlns="http://www.w3.org/2000/svg" xmlns:xlink="http://www.w3.org/1999/xlink" style="isolation:isolate" viewBox="370 269 499 168" width="499" height="168"><g id="blueshade"><g transform="matrix(1,0,0,1,456,341)"><text transform="matrix(1,0,0,1,0,78.96)" style="font-family:&quot;Lato&quot;;font-weight:400;font-size:80px;font-style:normal;fill:#125688;stroke:none;">Community</text></g><g transform="matrix(1,0,0,1,453,269)"><text transform="matrix(1,0,0,1,0,78.96)" style="font-family:&quot;Lato&quot;;font-weight:400;font-size:80px;font-style:normal;letter-spacing:5;fill:#125688;stroke:none;">MAT</text></g><g id="null"><path d=" M 383.654 340 C 398.437 346.522 413.021 346.542 427.346 340 L 427.346 420 L 383.654 420 L 383.654 340 Z " fill="rgb(113,154,184)"/><path d=" M 380.377 328 C 397.737 339.055 414.516 339.085 430.623 328 L 430.623 420 L 441 420 L 441 290 L 370 290 L 370 420 L 380.377 420 L 380.377 328 Z " fill="rgb(18,86,136)"/></g></g></svg>